Coordinates
version=1
nRows=27
nColumns=12
inDegrees=yes

Units are S.I. units (second, meters, Newtons, ...)
Angles are in degrees

endheader
time	SC_y	SC_z	SC_x	AC_y	AC_z	AC_x	GH_y	GH_z	GH_yy	EL_x	PS_y
       0.0              -42.55          32.68          41.38          37.29         -8.356         -8.276          152.4          85.96          116.5          80.08          132.3
    0.0383              -42.55          32.67          41.38          37.29         -8.355         -8.274          152.4          85.95          116.5          80.07          132.3
    0.0766              -42.55          32.67          41.38           37.3         -8.355         -8.271          152.4          85.95          116.5          80.07          132.3
    0.1149              -42.54          32.67          41.38           37.3         -8.355         -8.268          152.4          85.95          116.4          80.06          132.3
    0.1532              -42.54          32.66          41.38           37.3         -8.355         -8.264          152.4          85.94          116.4          80.05          132.3
    0.1915              -42.54          32.66          41.38          37.31         -8.354         -8.261          152.4          85.94          116.4          80.04          132.3
    0.2298              -42.54          32.65          41.38          37.31         -8.354         -8.257          152.4          85.93          116.3          80.03          132.2
    0.2681              -42.53          32.65          41.38          37.32         -8.354         -8.253          152.3          85.93          116.3          80.02          132.2
    0.3064              -42.53          32.64          41.37          37.32         -8.353         -8.249          152.3          85.93          116.2          80.01          132.2
    0.3447              -42.53          32.64          41.37          37.33         -8.353         -8.245          152.3          85.92          116.2           80.0          132.2
     0.383              -42.53          32.63          41.37          37.34         -8.352          -8.24          152.3          85.92          116.1          79.99          132.2
    0.4213              -42.52          32.63          41.37          37.34         -8.352         -8.234          152.3          85.91          116.1          79.97          132.2
    0.4596              -42.52          32.62          41.37          37.35         -8.352         -8.229          152.2           85.9          116.0          79.96          132.1
    0.4979              -42.52          32.61          41.36          37.36         -8.351         -8.223          152.2           85.9          115.9          79.94          132.1
    0.5362              -42.51           32.6          41.36          37.37          -8.35         -8.216          152.2          85.89          115.8          79.93          132.1
    0.5745              -42.51           32.6          41.36          37.38          -8.35         -8.209          152.2          85.88          115.8          79.91          132.1
    0.6128               -42.5          32.59          41.36          37.39         -8.349         -8.201          152.1          85.87          115.7          79.89          132.0
    0.6511               -42.5          32.58          41.35           37.4         -8.348         -8.193          152.1          85.87          115.6          79.87          132.0
    0.6894              -42.49          32.56          41.35          37.41         -8.348         -8.183          152.1          85.86          115.5          79.84          132.0
    0.7277              -42.49          32.55          41.35          37.42         -8.347         -8.173          152.0          85.84          115.3          79.82          131.9
     0.766              -42.48          32.54          41.34          37.44         -8.346         -8.162          152.0          85.83          115.2          79.79          131.9
    0.8044              -42.47          32.52          41.34          37.46         -8.345          -8.15          151.9          85.82          115.1          79.76          131.9
    0.8427              -42.46          32.51          41.33          37.47         -8.343         -8.136          151.9          85.81          114.9          79.72          131.8
     0.881              -42.46          32.49          41.33          37.49         -8.342         -8.121          151.8          85.79          114.7          79.68          131.7
    0.9193              -42.45          32.47          41.32          37.51         -8.341         -8.105          151.7          85.77          114.5          79.64          131.7
    0.9576              -42.43          32.45          41.32          37.54         -8.339         -8.086          151.7          85.75          114.3          79.59          131.6
    0.9959              -42.42          32.42          41.31          37.57         -8.337         -8.065          151.6          85.73          114.1          79.54          131.5
